<svg width="21" height="21" viewBox="0 0 21 21" fill="none" xmlns="http://www.w3.org/2000/svg">
<path d="M9.11237 11.6574H1.8652C1.45453 11.6574 1.11029 11.5185 0.832484 11.2407C0.554676 10.9629 0.415771 10.6187 0.415771 10.208C0.415771 9.79731 0.554676 9.45307 0.832484 9.17526C1.11029 8.89745 1.45453 8.75855 1.8652 8.75855H9.11237V1.51138C9.11237 1.10071 9.25128 0.756471 9.52908 0.478663C9.80689 0.200855 10.1511 0.0619507 10.5618 0.0619507C10.9725 0.0619507 11.3167 0.200855 11.5945 0.478663C11.8723 0.756471 12.0112 1.10071 12.0112 1.51138V8.75855H19.2584C19.6691 8.75855 20.0133 8.89745 20.2911 9.17526C20.5689 9.45307 20.7078 9.79731 20.7078 10.208C20.7078 10.6187 20.5689 10.9629 20.2911 11.2407C20.0133 11.5185 19.6691 11.6574 19.2584 11.6574H12.0112V18.9046C12.0112 19.3153 11.8723 19.6595 11.5945 19.9373C11.3167 20.2151 10.9725 20.354 10.5618 20.354C10.1511 20.354 9.80689 20.2151 9.52908 19.9373C9.25128 19.6595 9.11237 19.3153 9.11237 18.9046V11.6574Z" fill="white"/>
</svg>
