<svg width="20" height="20" viewBox="0 0 20 20" fill="none" xmlns="http://www.w3.org/2000/svg">
<path d="M0 8C0 3.58172 3.58172 0 8 0H12C16.4183 0 20 3.58172 20 8V12C20 16.4183 16.4183 20 12 20H8C3.58172 20 0 16.4183 0 12V8Z" fill="white"/>
<path d="M9.14286 10.8571H4.85714C4.61429 10.8571 4.41071 10.775 4.24643 10.6107C4.08214 10.4464 4 10.2429 4 10C4 9.75714 4.08214 9.55357 4.24643 9.38929C4.41071 9.225 4.61429 9.14286 4.85714 9.14286H9.14286V4.85714C9.14286 4.61429 9.225 4.41071 9.38929 4.24643C9.55357 4.08214 9.75714 4 10 4C10.2429 4 10.4464 4.08214 10.6107 4.24643C10.775 4.41071 10.8571 4.61429 10.8571 4.85714V9.14286H15.1429C15.3857 9.14286 15.5893 9.225 15.7536 9.38929C15.9179 9.55357 16 9.75714 16 10C16 10.2429 15.9179 10.4464 15.7536 10.6107C15.5893 10.775 15.3857 10.8571 15.1429 10.8571H10.8571V15.1429C10.8571 15.3857 10.775 15.5893 10.6107 15.7536C10.4464 15.9179 10.2429 16 10 16C9.75714 16 9.55357 15.9179 9.38929 15.7536C9.225 15.5893 9.14286 15.3857 9.14286 15.1429V10.8571Z" fill="#1E1E1E"/>
</svg>
