<svg width="24" height="18" viewBox="0 0 24 18" fill="none" xmlns="http://www.w3.org/2000/svg">
<g clip-path="url(#clip0_136_1069)">
<path d="M20.89 7.63H3.79L9.51 1.91C9.95 1.48 9.97 0.770004 9.54 0.330004C9.13 -0.0999959 8.4 -0.119996 7.96 0.310004L0.33 7.95C0.12 8.16 0 8.44 0 8.74C0 9.04 0.12 9.32 0.33 9.53L7.96 17.16C8.16 17.35 8.44 17.46 8.72 17.46C9.03 17.46 9.31 17.34 9.52 17.12C9.94 16.69 9.94 16.01 9.52 15.57L3.8 9.85H20.89C21.5 9.85 22 9.35 22 8.74C22 8.13 21.5 7.63 20.89 7.63Z" fill="#1E1E1E"/>
</g>
<defs>
<clipPath id="clip0_136_1069">
<rect width="24" height="17.46" fill="white"/>
</clipPath>
</defs>
</svg>
