<svg width="19" height="18" viewBox="0 0 19 18" fill="none" xmlns="http://www.w3.org/2000/svg">
<path d="M3 4H6V2L8 0H11L13 2V4H16C16.7956 4 17.5587 4.31607 18.1213 4.87868C18.6839 5.44129 19 6.20435 19 7V15C19 15.7956 18.6839 16.5587 18.1213 17.1213C17.5587 17.6839 16.7956 18 16 18H3C2.20435 18 1.44129 17.6839 0.87868 17.1213C0.316071 16.5587 0 15.7956 0 15V7C0 6.20435 0.316071 5.44129 0.87868 4.87868C1.44129 4.31607 2.20435 4 3 4ZM8.41 1L7 2.41V4H12V2.41L10.59 1H8.41ZM3 5C2.46957 5 1.96086 5.21071 1.58579 5.58579C1.21071 5.96086 1 6.46957 1 7V15C1 15.5304 1.21071 16.0391 1.58579 16.4142C1.96086 16.7893 2.46957 17 3 17H16C16.5304 17 17.0391 16.7893 17.4142 16.4142C17.7893 16.0391 18 15.5304 18 15V7C18 6.46957 17.7893 5.96086 17.4142 5.58579C17.0391 5.21071 16.5304 5 16 5H3Z" fill="white"/>
</svg>
