<svg width="24" height="24" viewBox="0 0 24 24" fill="none" xmlns="http://www.w3.org/2000/svg">
<rect width="24" height="24" rx="12" fill="white"/>
<circle cx="12.0008" cy="12.9256" r="1.80499" fill="#1E1E1E"/>
<path d="M17.1762 7.07064H15.4706L15.1512 6.21884C14.9008 5.54844 14.2511 5.09888 13.5354 5.09888H10.4653C9.74957 5.09888 9.10086 5.54943 8.85044 6.21884L8.53102 7.07064H6.82544C5.32985 7.07064 4.11426 8.28624 4.11426 9.78182V16.1901C4.11426 17.6857 5.32985 18.9012 6.82544 18.9012H17.1762C18.6718 18.9012 19.8874 17.6857 19.8874 16.1901V9.78182C19.8874 8.28624 18.6718 7.07064 17.1762 7.07064ZM7.07092 11.0142C6.52671 11.0142 6.08504 10.5725 6.08504 10.0283C6.08504 9.48409 6.52671 9.04241 7.07092 9.04241C7.61513 9.04241 8.05681 9.48409 8.05681 10.0283C8.05681 10.5725 7.61513 11.0142 7.07092 11.0142ZM12.0003 15.9436C10.3667 15.9436 9.04269 14.6196 9.04269 12.9859C9.04269 11.3523 10.3667 10.0283 12.0003 10.0283C13.6339 10.0283 14.958 11.3523 14.958 12.9859C14.958 14.6196 13.6339 15.9436 12.0003 15.9436Z" fill="#1E1E1E"/>
</svg>
