<svg width="13" height="13" viewBox="0 0 13 13" fill="none" xmlns="http://www.w3.org/2000/svg">
<path d="M11.9088 6.50346C11.6925 6.50346 11.5242 6.67975 11.5242 6.88808C11.5242 9.78075 9.16838 12.1365 6.27572 12.1365C3.38305 12.1365 1.02725 9.78075 1.02725 6.88808C1.02725 3.99542 3.38305 1.63962 6.27572 1.63962C7.8783 1.63962 9.36069 2.36078 10.3543 3.6108L10.6588 3.99542H8.77575C8.5594 3.99542 8.39113 4.1717 8.39113 4.38004C8.39113 4.58837 8.56741 4.76466 8.77575 4.76466H11.2838C11.5001 4.76466 11.6684 4.58837 11.6684 4.38004V1.88001C11.6684 1.66366 11.4921 1.49539 11.2838 1.49539C11.0755 1.49539 10.8992 1.67167 10.8992 1.88001V3.00983L10.4905 2.60918C9.36069 1.47936 7.86228 0.862366 6.27572 0.862366C2.95036 0.862366 0.25 3.56272 0.25 6.88808C0.25 10.2134 2.95036 12.9138 6.27572 12.9138C9.60108 12.9138 12.3014 10.2134 12.3014 6.88808C12.3014 6.67173 12.1252 6.50346 11.9168 6.50346H11.9088Z" fill="#325EBF"/>
</svg>
