<svg width="23" height="22" viewBox="0 0 23 22" fill="none" xmlns="http://www.w3.org/2000/svg">
<rect x="0.75" width="22" height="22" rx="11" fill="#2C2C2C" fill-opacity="0.1"/>
<path d="M6.95168 15.7981C6.86066 15.7112 6.80068 15.6077 6.77172 15.4876C6.74276 15.3675 6.74276 15.2474 6.77172 15.1273C6.80481 15.0072 6.8648 14.9058 6.95168 14.823L10.7618 10.9969L6.95168 7.17702C6.8648 7.0942 6.80688 6.99275 6.77792 6.87267C6.74897 6.75259 6.74897 6.63251 6.77792 6.51242C6.80688 6.39234 6.8648 6.28882 6.95168 6.20186C7.04269 6.11077 7.14818 6.05072 7.26815 6.02174C7.38812 5.99275 7.50809 5.99275 7.62806 6.02174C7.74803 6.05072 7.85146 6.1087 7.93833 6.19565L11.7547 10.0155L15.5648 6.19565C15.6516 6.10455 15.7551 6.04658 15.875 6.02174C15.995 5.99275 16.1129 5.99275 16.2287 6.02174C16.3487 6.05072 16.4563 6.11077 16.5514 6.20186C16.6383 6.28882 16.6962 6.39234 16.7252 6.51242C16.7583 6.63251 16.7583 6.75259 16.7252 6.87267C16.6962 6.98861 16.6383 7.09213 16.5514 7.18323L12.7413 10.9969L16.5514 14.8168C16.6383 14.9079 16.6962 15.0135 16.7252 15.1335C16.7541 15.2495 16.7541 15.3675 16.7252 15.4876C16.6962 15.6077 16.6383 15.7112 16.5514 15.7981C16.4604 15.8892 16.3549 15.9493 16.235 15.9783C16.115 16.0072 15.995 16.0072 15.875 15.9783C15.7551 15.9493 15.6516 15.8913 15.5648 15.8043L11.7547 11.9845L7.93833 15.8043C7.85146 15.8913 7.74803 15.9493 7.62806 15.9783C7.51223 16.0072 7.39226 16.0072 7.26815 15.9783C7.14818 15.9493 7.04269 15.8892 6.95168 15.7981Z" fill="#1C1B1F" fill-opacity="0.99"/>
</svg>
