<svg width="22" height="22" viewBox="0 0 22 22" fill="none" xmlns="http://www.w3.org/2000/svg">
<path d="M18.318 12.5H14.443C13.9293 12.4995 13.4364 12.7027 13.0724 13.065C12.7083 13.4274 12.5029 13.9193 12.501 14.433V18.308C12.5007 18.5631 12.5508 18.8158 12.6483 19.0515C12.7458 19.2872 12.8888 19.5014 13.0692 19.6818C13.2496 19.8622 13.4638 20.0052 13.6995 20.1027C13.9353 20.2002 14.1879 20.2503 14.443 20.25H18.318C18.8315 20.2479 19.3232 20.0423 19.6853 19.6783C20.0475 19.3142 20.2505 18.8215 20.25 18.308V14.433C20.2503 14.1792 20.2005 13.9279 20.1035 13.6933C20.0065 13.4588 19.8642 13.2457 19.6847 13.0663C19.5053 12.8868 19.2922 12.7445 19.0577 12.6475C18.8231 12.5505 18.5718 12.5007 18.318 12.501M7.557 12.5H3.682C3.16859 12.5029 2.67721 12.7089 2.3152 13.073C1.95319 13.437 1.74999 13.9296 1.75 14.443V18.318C1.74974 18.5718 1.79953 18.8231 1.89653 19.0577C1.99353 19.2922 2.13583 19.5053 2.31528 19.6847C2.49474 19.8642 2.70783 20.0065 2.94235 20.1035C3.17687 20.2005 3.42821 20.2503 3.682 20.25H7.557C8.07048 20.2505 8.56324 20.0475 8.92726 19.6853C9.29128 19.3232 9.49688 18.8315 9.499 18.318V14.443C9.49926 14.1879 9.44921 13.9353 9.35171 13.6995C9.25421 13.4638 9.11117 13.2496 8.93079 13.0692C8.75041 12.8888 8.53622 12.7458 8.30048 12.6483C8.06475 12.5508 7.8121 12.5007 7.557 12.501M7.557 1.75H3.682C3.42821 1.74974 3.17687 1.79953 2.94235 1.89653C2.70783 1.99353 2.49474 2.13583 2.31528 2.31528C2.13583 2.49474 1.99353 2.70783 1.89653 2.94235C1.79953 3.17687 1.74974 3.42821 1.75 3.682V7.557C1.74947 8.07048 1.95253 8.56324 2.31468 8.92726C2.67683 9.29128 3.16852 9.49688 3.682 9.499H7.557C7.8121 9.49926 8.06475 9.44921 8.30048 9.35171C8.53622 9.25421 8.75041 9.11117 8.93079 8.93079C9.11117 8.75041 9.25421 8.53622 9.35171 8.30048C9.44921 8.06475 9.49926 7.8121 9.499 7.557V3.682C9.49688 3.16852 9.29128 2.67683 8.92726 2.31468C8.56324 1.95253 8.07048 1.74947 7.557 1.75ZM18.318 1.75H14.443C13.9295 1.74947 13.4368 1.95253 13.0727 2.31468C12.7087 2.67683 12.5031 3.16852 12.501 3.682V7.557C12.5013 8.07197 12.706 8.56577 13.0701 8.92991C13.4342 9.29405 13.928 9.49874 14.443 9.499H18.318C18.8315 9.49688 19.3232 9.29128 19.6853 8.92726C20.0475 8.56324 20.2505 8.07048 20.25 7.557V3.682C20.2503 3.42821 20.2005 3.17687 20.1035 2.94235C20.0065 2.70783 19.8642 2.49474 19.6847 2.31528C19.5053 2.13583 19.2922 1.99353 19.0577 1.89653C18.8231 1.79953 18.5718 1.74974 18.318 1.75Z" stroke="#1E1E1E" stroke-opacity="0.6" stroke-width="2" stroke-linecap="round" stroke-linejoin="round"/>
</svg>
