<svg width="24" height="24" viewBox="0 0 24 24" fill="none" xmlns="http://www.w3.org/2000/svg">
<path d="M8.5 17.5H15.5V16.5H8.5V17.5ZM8.5 13.5H15.5V12.5H8.5V13.5ZM6.616 21C6.15533 21 5.771 20.846 5.463 20.538C5.155 20.23 5.00067 19.8457 5 19.385V4.615C5 4.155 5.15433 3.771 5.463 3.463C5.77167 3.155 6.156 3.00067 6.616 3H14.5L19 7.5V19.385C19 19.845 18.846 20.2293 18.538 20.538C18.23 20.8467 17.8453 21.0007 17.384 21H6.616ZM14 8V4H6.616C6.462 4 6.32067 4.064 6.192 4.192C6.06333 4.32 5.99933 4.461 6 4.615V19.385C6 19.5383 6.064 19.6793 6.192 19.808C6.32 19.9367 6.461 20.0007 6.615 20H17.385C17.5383 20 17.6793 19.936 17.808 19.808C17.9367 19.68 18.0007 19.5387 18 19.384V8H14Z" fill="#1E1E1E" fill-opacity="0.6"/>
</svg>
