<svg width="30" height="31" viewBox="0 0 30 31" fill="none" xmlns="http://www.w3.org/2000/svg">
<rect y="0.5" width="30" height="30" rx="8" fill="#D9D9D9" fill-opacity="0.3"/>
<path fill-rule="evenodd" clip-rule="evenodd" d="M23.9667 9.36944C24.0583 9.50849 24.0991 9.67489 24.0822 9.84055C24.0654 10.0062 23.9918 10.161 23.8741 10.2787L15.0109 19.1417C14.9203 19.2324 14.8071 19.2973 14.6831 19.3298L10.9915 20.294C10.8695 20.3258 10.7413 20.3252 10.6196 20.2921C10.4978 20.2591 10.3869 20.1948 10.2977 20.1056C10.2086 20.0164 10.1443 19.9054 10.1112 19.7837C10.0782 19.662 10.0775 19.5338 10.1093 19.4117L11.0735 15.7207C11.1023 15.6102 11.1553 15.5074 11.2287 15.4199L20.1246 6.52887C20.2602 6.39345 20.444 6.31738 20.6356 6.31738C20.8272 6.31738 21.011 6.39345 21.1466 6.52887L23.8741 9.25567C23.9078 9.29119 23.9387 9.32922 23.9667 9.36944ZM22.3402 9.7667L20.6356 8.06294L12.4232 16.2761L11.8207 18.5835L14.1278 17.9808L22.3402 9.7667Z" fill="#1E1E1E"/>
<path d="M22.3697 20.228C22.6303 18.0049 22.7135 15.7646 22.6185 13.5283C22.6163 13.4756 22.625 13.423 22.6442 13.3738C22.6634 13.3247 22.6927 13.28 22.7301 13.2428L23.668 12.3063C23.6937 12.2806 23.7262 12.2628 23.7617 12.2551C23.7972 12.2474 23.8342 12.25 23.8683 12.2628C23.9023 12.2756 23.9319 12.2979 23.9536 12.327C23.9752 12.3562 23.9879 12.391 23.9902 12.4272C24.1663 15.0835 24.0993 17.7504 23.7901 20.3945C23.5651 22.3188 22.017 23.8272 20.0981 24.0413C16.7669 24.4094 13.4051 24.4094 10.0738 24.0413C8.15584 23.8272 6.60681 22.3188 6.38184 20.3945C5.9873 17.0212 5.9873 13.6136 6.38184 10.2403C6.60681 8.31599 8.15489 6.80759 10.0738 6.59347C12.6022 6.31468 15.1495 6.24687 17.6893 6.39076C17.7256 6.39337 17.7605 6.40632 17.7897 6.42808C17.8189 6.44984 17.8412 6.4795 17.854 6.51355C17.8669 6.5476 17.8697 6.5846 17.8621 6.62019C17.8545 6.65577 17.8369 6.68844 17.8113 6.71433L16.8647 7.65838C16.8277 7.69535 16.7835 7.72432 16.7348 7.74347C16.6861 7.76263 16.6339 7.77157 16.5816 7.76973C14.4623 7.69726 12.3405 7.77836 10.233 8.0124C9.61711 8.08046 9.04222 8.35379 8.60115 8.78825C8.16009 9.22271 7.87861 9.79293 7.80218 10.4068C7.4198 13.6694 7.4198 16.9654 7.80218 20.228C7.87861 20.8419 8.16009 21.4121 8.60115 21.8465C9.04222 22.281 9.61711 22.5543 10.233 22.6224C13.4311 22.9793 16.7408 22.9793 19.9399 22.6224C20.5557 22.5543 21.1306 22.281 21.5717 21.8465C22.0128 21.4121 22.2933 20.8419 22.3697 20.228Z" fill="#1E1E1E"/>
</svg>
