<svg width="25" height="24" viewBox="0 0 25 24" fill="none" xmlns="http://www.w3.org/2000/svg">
<g clip-path="url(#clip0_508_3737)">
<path fill-rule="evenodd" clip-rule="evenodd" d="M23.4136 2.3641L21.7576 0.708104C20.8216 -0.227896 19.2976 -0.227896 18.3616 0.708104L9.04959 10.0201C8.74959 10.3081 8.52159 10.6681 8.36559 11.0521C7.92159 12.1441 6.87759 14.7961 6.82959 15.5761C6.82959 15.6481 6.82959 15.7201 6.82959 15.7921C6.88959 16.6801 7.65759 17.3641 8.55759 17.3041C9.33759 17.2561 12.0016 16.2121 13.0936 15.7561C13.4776 15.6001 13.8256 15.3721 14.1136 15.0841C14.1856 15.0121 14.2696 14.9281 14.3656 14.8441C14.3656 14.8441 14.3656 14.8441 14.3776 14.8441C14.3896 14.8441 14.3776 14.8441 14.3776 14.8321C15.6376 13.5721 18.7576 10.4521 21.2056 8.0041C22.0576 7.1521 22.8376 6.3721 23.4136 5.7961C24.3496 4.8601 24.3496 3.3361 23.4136 2.4001V2.3641ZM13.7656 13.0321L11.0776 10.3441L16.7296 4.6921L19.4176 7.3801C17.5336 9.2641 15.6496 11.1481 13.7656 13.0321ZM8.50959 15.6121C8.60559 14.8441 9.54159 12.6121 9.92559 11.6641C9.92559 11.6641 9.96159 11.6161 9.97359 11.5921L12.5176 14.1361C12.5176 14.1361 12.4696 14.1721 12.4456 14.1841C11.5096 14.5681 9.27759 15.5041 8.50959 15.6001V15.6121ZM22.2376 4.5721C21.6976 5.1121 21.1576 5.6521 20.6176 6.1921L17.9296 3.5041L19.5496 1.8841C19.8376 1.5961 20.2936 1.5961 20.5816 1.8841L22.2376 3.5401C22.5256 3.8281 22.5256 4.2841 22.2376 4.5721Z" fill="#1E1E1E" fill-opacity="0.6"/>
<path fill-rule="evenodd" clip-rule="evenodd" d="M22.1896 15.06C21.7216 15.06 21.3496 15.432 21.3496 15.9V19.812C21.3496 21.204 20.2216 22.332 18.8296 22.332H4.30958C2.91758 22.332 1.78958 21.204 1.78958 19.812V6.39605C1.78958 5.00405 2.91758 3.87604 4.30958 3.87604H8.22158C8.68958 3.87604 9.06158 3.50404 9.06158 3.03604C9.06158 2.56804 8.68958 2.19604 8.22158 2.19604H4.30958C1.99358 2.20804 0.121582 4.09205 0.121582 6.39605V19.8C0.121582 22.116 1.99358 23.988 4.30958 23.988H18.8416C21.1576 23.988 23.0296 22.116 23.0296 19.8V15.888C23.0296 15.42 22.6576 15.048 22.1896 15.048V15.06Z" fill="#1E1E1E" fill-opacity="0.6"/>
</g>
<defs>
<clipPath id="clip0_508_3737">
<rect width="24" height="24" fill="white" transform="translate(0.121582)"/>
</clipPath>
</defs>
</svg>
