<svg width="26" height="26" viewBox="0 0 26 26" fill="none" xmlns="http://www.w3.org/2000/svg">
<path d="M10.8486 8.65083C11.676 9.47828 11.676 10.8198 10.8486 11.6473C10.0211 12.4747 8.67957 12.4747 7.85212 11.6473C7.02467 10.8198 7.02467 9.47828 7.85212 8.65083C8.67957 7.82338 10.0211 7.82338 10.8486 8.65083" stroke="#2C2C2C" stroke-width="1.15369" stroke-linecap="round" stroke-linejoin="round"/>
<path d="M19.583 10.1492H11.5091" stroke="#2C2C2C" stroke-width="1.15369" stroke-linecap="round" stroke-linejoin="round"/>
<path fill-rule="evenodd" clip-rule="evenodd" d="M18.9505 15.0541C19.778 15.8815 19.778 17.2231 18.9505 18.0505C18.1231 18.878 16.7815 18.878 15.9541 18.0505C15.1266 17.2231 15.1266 15.8815 15.9541 15.0541C16.7815 14.2266 18.1231 14.2266 18.9505 15.0541Z" stroke="#2C2C2C" stroke-width="1.15369" stroke-linecap="round" stroke-linejoin="round"/>
<path d="M7.27585 16.5571L15.3115 16.5571" stroke="#2C2C2C" stroke-width="1.15369" stroke-linecap="round" stroke-linejoin="round"/>
</svg>
