<svg width="24" height="18" viewBox="0 0 24 18" fill="none" xmlns="http://www.w3.org/2000/svg">
<path d="M1.11 8.09264H20.21L14.49 2.37264C14.05 1.94264 14.03 1.23264 14.46 0.792635C14.87 0.362635 15.6 0.342635 16.04 0.772635L23.67 8.41264C23.88 8.62263 24 8.90263 24 9.20263C24 9.50264 23.88 9.78263 23.67 9.99263L16.04 17.6226C15.84 17.8126 15.56 17.9226 15.28 17.9226C14.97 17.9226 14.69 17.8026 14.48 17.5826C14.06 17.1526 14.06 16.4726 14.48 16.0326L20.2 10.3126H1.11C0.5 10.3126 0 9.81263 0 9.20263C0 8.59264 0.5 8.09264 1.11 8.09264Z" fill="#006AB7"/>
</svg>
