<svg width="24" height="24" viewBox="0 0 24 24" fill="none" xmlns="http://www.w3.org/2000/svg">
<path d="M23.4261 8.669L12.1761 2.669C12.1219 2.64011 12.0614 2.625 11.9999 2.625C11.9384 2.625 11.8779 2.64011 11.8236 2.669L0.573633 8.669C0.513635 8.70098 0.463458 8.74866 0.42847 8.80695C0.393482 8.86524 0.375 8.93195 0.375 8.99994C0.375 9.06792 0.393482 9.13463 0.42847 9.19292C0.463458 9.25122 0.513635 9.2989 0.573633 9.33088L3.37488 10.8253V15.5896C3.37274 15.8658 3.47293 16.133 3.65613 16.3396C4.84207 17.6606 7.49988 19.8768 11.9999 19.8768C13.9686 19.8768 15.5811 19.4531 16.8749 18.8652V22.4999C16.8749 22.5994 16.9144 22.6948 16.9847 22.7651C17.055 22.8354 17.1504 22.8749 17.2499 22.8749C17.3493 22.8749 17.4447 22.8354 17.515 22.7651C17.5854 22.6948 17.6249 22.5994 17.6249 22.4999V18.4856C18.6442 17.9257 19.5631 17.1998 20.3436 16.3377C20.5267 16.131 20.6269 15.8639 20.6249 15.5877V10.8253L23.4261 9.33088C23.4861 9.2989 23.5363 9.25122 23.5713 9.19292C23.6063 9.13463 23.6248 9.06792 23.6248 8.99994C23.6248 8.93195 23.6063 8.86524 23.5713 8.80695C23.5363 8.74866 23.4861 8.70098 23.4261 8.669ZM11.9999 19.1249C7.79707 19.1249 5.3202 17.0624 4.21863 15.8362C4.15795 15.7684 4.12454 15.6806 4.12488 15.5896V11.2246L11.8236 15.3309C11.8779 15.3598 11.9384 15.3749 11.9999 15.3749C12.0614 15.3749 12.1219 15.3598 12.1761 15.3309L16.8749 12.8249V18.0309C15.6168 18.6562 14.0052 19.1249 11.9999 19.1249ZM19.8749 15.5896C19.8748 15.6808 19.8414 15.7688 19.7811 15.8371C19.1524 16.5321 18.426 17.1321 17.6249 17.6184V12.4246L19.8749 11.2246V15.5896ZM17.5696 11.6043C17.5346 11.5473 17.4851 11.5007 17.4261 11.4693L12.1761 8.669C12.0886 8.62427 11.9869 8.61573 11.8931 8.64522C11.7993 8.67472 11.7208 8.73988 11.6746 8.82668C11.6283 8.91348 11.6181 9.01497 11.6459 9.10928C11.6738 9.20359 11.7376 9.28317 11.8236 9.33088L16.828 11.9999L11.9999 14.5753L1.54676 8.99994L11.9999 3.42462L22.453 8.99994L17.5696 11.6043Z" fill="#1E1E1E" fill-opacity="0.6"/>
</svg>
