<svg width="24" height="24" viewBox="0 0 24 24" fill="none" xmlns="http://www.w3.org/2000/svg">
<path d="M11.7018 19.9424C11.8325 19.9424 11.9665 19.9131 12.1038 19.8544C12.2411 19.7958 12.3521 19.7241 12.4368 19.6394L20.2328 11.8424C20.4841 11.5911 20.6781 11.3344 20.8148 11.0724C20.9508 10.8091 21.0188 10.5204 21.0188 10.2064C21.0188 9.88845 20.9508 9.57978 20.8148 9.28045C20.6781 8.98044 20.4841 8.70711 20.2328 8.46045L16.4828 4.71045C16.2355 4.45911 15.9811 4.27478 15.7198 4.15745C15.4591 4.04011 15.1698 3.98145 14.8518 3.98145C14.5378 3.98145 14.2461 4.04011 13.9768 4.15745C13.7075 4.27478 13.4538 4.45878 13.2158 4.70945L12.3438 5.58145L14.1938 7.43645C14.3925 7.63178 14.5408 7.85378 14.6388 8.10245C14.7361 8.35111 14.7848 8.60345 14.7848 8.85945C14.7848 9.38011 14.6145 9.81078 14.2738 10.1514C13.9331 10.4921 13.5028 10.6621 12.9828 10.6614C12.7261 10.6614 12.4758 10.6224 12.2318 10.5444C11.9878 10.4664 11.7681 10.3298 11.5728 10.1344L9.65981 8.22845L5.34181 12.5454C5.24115 12.6468 5.16548 12.7618 5.11481 12.8904C5.06415 13.0191 5.03881 13.1491 5.03881 13.2804C5.03881 13.5164 5.11448 13.7108 5.26581 13.8634C5.41648 14.0168 5.60981 14.0934 5.84581 14.0934C5.97648 14.0934 6.11048 14.0641 6.24781 14.0054C6.38515 13.9461 6.49615 13.8741 6.58081 13.7894L9.74981 10.6204L10.4578 11.3284L7.29381 14.4984C7.19248 14.5991 7.11648 14.7138 7.06581 14.8424C7.01581 14.9718 6.99081 15.1018 6.99081 15.2324C6.99081 15.4558 7.06948 15.6461 7.22681 15.8034C7.38415 15.9608 7.57448 16.0398 7.79781 16.0404C7.92848 16.0404 8.06248 16.0108 8.19981 15.9514C8.33715 15.8921 8.44815 15.8204 8.53281 15.7364L11.9328 12.3424L12.6408 13.0494L9.24581 16.4494C9.15715 16.5341 9.08448 16.6451 9.02781 16.7824C8.97048 16.9198 8.94181 17.0538 8.94181 17.1844C8.94181 17.4071 9.02081 17.5971 9.17881 17.7544C9.33615 17.9131 9.52648 17.9924 9.74981 17.9924C9.88048 17.9924 10.0105 17.9671 10.1398 17.9164C10.2691 17.8658 10.3838 17.7898 10.4838 17.6884L13.8838 14.2934L14.5918 15.0014L11.1918 18.4014C11.0911 18.5028 11.0155 18.6244 10.9648 18.7664C10.9141 18.9084 10.8888 19.0381 10.8888 19.1554C10.8888 19.3914 10.9718 19.5818 11.1378 19.7264C11.3038 19.8711 11.4918 19.9434 11.7018 19.9434M11.6958 20.9434C11.1818 20.9434 10.7418 20.7554 10.3758 20.3794C10.0098 20.0028 9.84915 19.5381 9.89381 18.9854C9.32715 18.9921 8.85548 18.8231 8.47881 18.4784C8.10215 18.1331 7.92315 17.6518 7.94181 17.0344C7.32448 17.0411 6.83781 16.8644 6.48181 16.5044C6.12581 16.1444 5.96381 15.6704 5.99581 15.0824C5.43981 15.0891 4.97448 14.9324 4.59981 14.6124C4.22581 14.2938 4.03881 13.8498 4.03881 13.2804C4.03881 13.0238 4.08848 12.7671 4.18781 12.5104C4.28715 12.2531 4.43381 12.0271 4.62781 11.8324L9.65981 6.80645L12.2418 9.38844C12.3265 9.47711 12.4311 9.55011 12.5558 9.60745C12.6805 9.66478 12.8208 9.69311 12.9768 9.69245C13.1908 9.69245 13.3798 9.61778 13.5438 9.46845C13.7078 9.31911 13.7901 9.12444 13.7908 8.88445C13.7908 8.72845 13.7621 8.58845 13.7048 8.46445C13.6475 8.33978 13.5748 8.23511 13.4868 8.15044L10.0468 4.71045C9.79881 4.45911 9.54115 4.27478 9.27381 4.15745C9.00648 4.04011 8.71381 3.98145 8.39581 3.98145C8.08181 3.98145 7.79648 4.04011 7.53981 4.15745C7.28381 4.27478 7.03015 4.45911 6.77881 4.71045L3.73481 7.76045C3.52015 7.97378 3.34681 8.22878 3.21481 8.52544C3.08281 8.82144 3.01281 9.12711 3.00481 9.44245C2.99815 9.66845 3.01748 9.88545 3.06281 10.0934C3.10815 10.3014 3.18148 10.4974 3.28281 10.6814L2.52481 11.4394C2.35681 11.1714 2.22548 10.8628 2.13081 10.5134C2.03615 10.1641 1.99248 9.80745 1.99981 9.44345C2.00781 8.98878 2.09881 8.55378 2.27281 8.13844C2.44681 7.72311 2.69615 7.35278 3.02081 7.02745L6.04581 4.00245C6.39448 3.65711 6.76348 3.40045 7.15281 3.23245C7.54215 3.06511 7.96315 2.98145 8.41581 2.98145C8.86848 2.98145 9.28581 3.06545 9.66781 3.23345C10.0505 3.40078 10.4145 3.65711 10.7598 4.00245L11.6298 4.87345L12.5018 4.00245C12.8505 3.65711 13.2161 3.40045 13.5988 3.23245C13.9815 3.06511 14.3991 2.98145 14.8518 2.98145C15.3045 2.98145 15.7255 3.06545 16.1148 3.23345C16.5035 3.40078 16.8701 3.65711 17.2148 4.00245L20.9408 7.72745C21.2855 8.07211 21.5515 8.45911 21.7388 8.88844C21.9261 9.31778 22.0195 9.75878 22.0188 10.2114C22.0188 10.6648 21.9255 11.0824 21.7388 11.4644C21.5521 11.8464 21.2861 12.2104 20.9408 12.5564L13.1438 20.3464C12.9365 20.5544 12.7105 20.7058 12.4658 20.8004C12.2218 20.8951 11.9651 20.9424 11.6958 20.9424" fill="#1E1E1E"/>
</svg>
