<svg width="13" height="16" viewBox="0 0 13 16" fill="none" xmlns="http://www.w3.org/2000/svg">
<g clip-path="url(#clip0_136_1193)">
<path d="M11.6126 4.3059V4.2859C10.6126 2.2459 8.60259 0.955903 6.34259 0.925903H6.26259C4.03259 0.925903 2.03259 2.1859 1.03259 4.2059C-0.0174142 6.3359 0.232586 8.8159 1.69259 10.6659L5.53259 15.5359C5.71259 15.7559 5.97259 15.8859 6.26259 15.8859C6.47259 15.8859 6.67259 15.8159 6.83259 15.6859C6.89259 15.6459 6.94259 15.5859 6.98259 15.5359L10.9226 10.5359C12.3226 8.7459 12.5926 6.3659 11.6226 4.3159L11.6126 4.3059ZM10.2826 10.0259L6.32259 15.0259L6.24259 15.1259L6.16259 15.0259L2.32259 10.1559C1.06259 8.5559 0.842586 6.4059 1.75259 4.5659C2.64259 2.7959 4.32259 1.7459 6.26259 1.7459H6.34259C8.33259 1.7759 10.0326 2.8659 10.8926 4.6659C11.7526 6.4659 11.5226 8.4759 10.2926 10.0359L10.2826 10.0259Z" fill="black"/>
<path d="M6.25259 4.03589C4.78259 4.03589 3.59259 5.22589 3.59259 6.69589C3.59259 8.16589 4.78259 9.35589 6.25259 9.35589C7.72259 9.35589 8.91259 8.16589 8.91259 6.69589C8.91259 5.22589 7.72259 4.03589 6.25259 4.03589ZM6.25259 8.53589C5.23259 8.51589 4.42259 7.66589 4.45259 6.64589C4.47259 5.65589 5.27259 4.86589 6.25259 4.84589C6.75259 4.85589 7.21259 5.06589 7.55259 5.41589C7.89259 5.77589 8.07259 6.24589 8.06259 6.73589C8.04259 7.72589 7.24259 8.51589 6.26259 8.53589H6.25259Z" fill="black"/>
</g>
<defs>
<clipPath id="clip0_136_1193">
<rect width="11.8" height="14.96" fill="white" transform="translate(0.392578 0.925903)"/>
</clipPath>
</defs>
</svg>
