<svg width="13" height="16" viewBox="0 0 13 16" fill="none" xmlns="http://www.w3.org/2000/svg">
<path fill-rule="evenodd" clip-rule="evenodd" d="M6.54998 0.0594482C10.1031 0.0594482 12.9784 2.9347 12.9784 6.48785C12.9784 8.33455 12.055 10.2397 10.8979 11.8293C9.28498 14.0617 7.26295 15.6863 7.26295 15.6863C6.84219 16.0253 6.25778 16.0253 5.83702 15.6863C5.83702 15.6863 3.81499 14.0617 2.20205 11.8293C1.04493 10.228 0.121582 8.33455 0.121582 6.48785C0.121582 2.9347 2.99683 0.0594482 6.54998 0.0594482ZM6.54998 3.84636C8.01099 3.84636 9.19147 5.02685 9.19147 6.48785C9.19147 7.94885 8.01099 9.12934 6.54998 9.12934C5.08898 9.12934 3.9085 7.94885 3.9085 6.48785C3.9085 5.02685 5.08898 3.84636 6.54998 3.84636Z" fill="white"/>
<path fill-rule="evenodd" clip-rule="evenodd" d="M6.54998 0.0594482C10.1031 0.0594482 12.9784 2.9347 12.9784 6.48785C12.9784 8.33455 12.055 10.2397 10.8979 11.8293C9.28498 14.0617 7.26295 15.6863 7.26295 15.6863C6.84219 16.0253 6.25778 16.0253 5.83702 15.6863C5.83702 15.6863 3.81499 14.0617 2.20205 11.8293C1.04493 10.228 0.121582 8.33455 0.121582 6.48785C0.121582 2.9347 2.99683 0.0594482 6.54998 0.0594482ZM6.54998 3.84636C8.01099 3.84636 9.19147 5.02685 9.19147 6.48785C9.19147 7.94885 8.01099 9.12934 6.54998 9.12934C5.08898 9.12934 3.9085 7.94885 3.9085 6.48785C3.9085 5.02685 5.08898 3.84636 6.54998 3.84636Z" fill="#FF2D46"/>
</svg>
