<svg width="15" height="16" viewBox="0 0 15 16" fill="none" xmlns="http://www.w3.org/2000/svg">
<g clip-path="url(#clip0_136_1332)">
<path d="M12.0595 0.689148C10.7163 0.689148 9.63074 1.77475 9.63074 3.11796C9.63074 4.24956 11.2131 6.43917 11.7191 7.11078C11.7191 7.27638 11.7191 7.43278 11.7191 7.57998C11.7191 7.67198 11.7467 7.75478 11.8111 7.82838C11.8755 7.89278 11.9583 7.92958 12.0595 7.93878C12.2435 7.93878 12.4 7.79158 12.4 7.60758C12.4 7.45118 12.4 7.28558 12.4 7.11998C12.906 6.44837 14.4884 4.25876 14.4884 3.12716C14.4884 1.78395 13.3936 0.698348 12.0595 0.698348V0.689148ZM13.7984 3.11796C13.7984 3.77116 12.906 5.24317 12.0595 6.41157C11.2131 5.23397 10.3207 3.77116 10.3207 3.11796C10.3207 2.16115 11.1027 1.37915 12.0595 1.37915C13.0164 1.37915 13.7984 2.16115 13.7984 3.11796Z" fill="#325EBF"/>
<path d="M6.5211 13.6152C6.2267 13.8452 5.8955 14.02 5.49989 14.1488C5.31589 14.204 5.22389 14.3972 5.27909 14.5812C5.32509 14.7192 5.45389 14.8204 5.61029 14.8204C5.6471 14.8204 5.6839 14.8204 5.7207 14.802C6.1899 14.6456 6.6039 14.434 6.9627 14.1488C7.1099 14.0292 7.1375 13.8176 7.0179 13.6612C6.8983 13.514 6.6775 13.4864 6.5303 13.606L6.5211 13.6152Z" fill="#325EBF"/>
<path d="M3.71509 10.9104C4.72709 10.9104 5.54589 10.0916 5.54589 9.07959C5.54589 8.06758 4.72709 7.24878 3.71509 7.24878C2.70308 7.24878 1.88428 8.06758 1.88428 9.07959C1.88428 10.0916 2.70308 10.9104 3.71509 10.9104ZM3.71509 7.92958C4.34989 7.92958 4.86509 8.44478 4.86509 9.07959C4.86509 9.71439 4.34989 10.2296 3.71509 10.2296C3.08028 10.2296 2.56508 9.71439 2.56508 9.07959C2.56508 8.44478 3.08028 7.92958 3.71509 7.92958Z" fill="#325EBF"/>
<path d="M12.0597 2.47394C11.7101 2.47394 11.4156 2.75914 11.4156 3.11794C11.4156 3.47674 11.7009 3.76194 12.0597 3.76194C12.4185 3.76194 12.7037 3.47674 12.7037 3.11794C12.7037 2.75914 12.4185 2.47394 12.0597 2.47394Z" fill="#325EBF"/>
<path d="M9.5019 9.25436C9.4099 9.22676 9.3179 9.24516 9.2351 9.29116C8.7291 9.57636 8.4531 10.0732 8.2875 10.4136C8.2507 10.4964 8.2415 10.5884 8.2691 10.6804C8.2967 10.7632 8.3611 10.8368 8.4439 10.8736C8.4899 10.892 8.5451 10.9104 8.5911 10.9104C8.6279 10.9104 8.6647 10.9104 8.7015 10.892C8.7843 10.8644 8.8579 10.8 8.8947 10.7172C9.0971 10.294 9.2995 10.0456 9.55711 9.88916C9.63991 9.84316 9.69511 9.76956 9.72271 9.67756C9.75031 9.58556 9.73191 9.49356 9.68591 9.41996C9.63991 9.33716 9.56631 9.28196 9.48351 9.25436H9.5019Z" fill="#325EBF"/>
<path d="M11.4983 8.63806C11.4063 8.77606 11.2131 8.96006 10.6243 9.01526C10.4311 9.03366 10.2931 9.19926 10.3115 9.39246C10.3299 9.56726 10.4771 9.70526 10.6519 9.70526C10.6611 9.70526 10.6703 9.70526 10.6795 9.70526C11.3419 9.65006 11.7927 9.42006 12.0595 9.02446C12.1699 8.86806 12.1239 8.65646 11.9675 8.54606C11.8111 8.43566 11.5995 8.48166 11.4891 8.63806H11.4983Z" fill="#325EBF"/>
<path d="M8.24153 11.4348C8.06673 11.3612 7.86433 11.4532 7.79993 11.628C7.67113 11.9684 7.50553 12.3732 7.27553 12.7412C7.17433 12.9068 7.22953 13.1184 7.38593 13.2104C7.44113 13.2472 7.50553 13.2564 7.56073 13.2564C7.68033 13.2564 7.79073 13.192 7.85513 13.0908C8.10353 12.6768 8.28753 12.2444 8.43473 11.8764C8.49913 11.7016 8.41633 11.4992 8.24153 11.4348Z" fill="#325EBF"/>
<path d="M7.33081 9.07959C7.33081 7.04638 5.7392 5.45477 3.70599 5.45477C1.67278 5.45477 0.0811768 7.04638 0.0811768 9.07959C0.0811768 11.7568 3.32879 14.8572 3.46679 14.9952C3.53119 15.0596 3.61399 15.0872 3.70599 15.0872C3.91759 15.0872 4.1292 15.0872 4.3316 15.0688C4.5248 15.0504 4.6628 14.8848 4.6444 14.7008C4.6444 14.5904 4.58 14.4984 4.488 14.4432C5.5644 13.284 7.33081 11.0852 7.33081 9.08879V9.07959ZM3.70599 6.14478C5.3528 6.14478 6.64081 7.43278 6.64081 9.07959C6.64081 11.076 4.442 13.5048 3.70599 14.2592C2.96999 13.5048 0.77118 11.076 0.77118 9.07959C0.77118 7.43278 2.05919 6.14478 3.70599 6.14478Z" fill="#325EBF"/>
</g>
<defs>
<clipPath id="clip0_136_1332">
<rect width="14.3981" height="14.3981" fill="white" transform="translate(0.090332 0.689087)"/>
</clipPath>
</defs>
</svg>
