<svg width="24" height="24" viewBox="0 0 24 24" fill="none" xmlns="http://www.w3.org/2000/svg">
<path d="M8.9998 8.40039C8.84067 8.40039 8.68806 8.4636 8.57554 8.57613C8.46302 8.68865 8.3998 8.84126 8.3998 9.00039C8.3998 9.15952 8.46302 9.31213 8.57554 9.42465C8.68806 9.53718 8.84067 9.60039 8.9998 9.60039H14.9998C15.1589 9.60039 15.3115 9.53718 15.4241 9.42465C15.5366 9.31213 15.5998 9.15952 15.5998 9.00039C15.5998 8.84126 15.5366 8.68865 15.4241 8.57613C15.3115 8.4636 15.1589 8.40039 14.9998 8.40039H8.9998ZM8.3998 12.6004C8.3998 12.4413 8.46302 12.2886 8.57554 12.1761C8.68806 12.0636 8.84067 12.0004 8.9998 12.0004H14.9998C15.1589 12.0004 15.3115 12.0636 15.4241 12.1761C15.5366 12.2886 15.5998 12.4413 15.5998 12.6004C15.5998 12.7595 15.5366 12.9121 15.4241 13.0247C15.3115 13.1372 15.1589 13.2004 14.9998 13.2004H8.9998C8.84067 13.2004 8.68806 13.1372 8.57554 13.0247C8.46302 12.9121 8.3998 12.7595 8.3998 12.6004ZM8.9998 15.6004C8.84067 15.6004 8.68806 15.6636 8.57554 15.7761C8.46302 15.8886 8.3998 16.0413 8.3998 16.2004C8.3998 16.3595 8.46302 16.5121 8.57554 16.6247C8.68806 16.7372 8.84067 16.8004 8.9998 16.8004H11.3998C11.5589 16.8004 11.7115 16.7372 11.8241 16.6247C11.9366 16.5121 11.9998 16.3595 11.9998 16.2004C11.9998 16.0413 11.9366 15.8886 11.8241 15.7761C11.7115 15.6636 11.5589 15.6004 11.3998 15.6004H8.9998ZM7.7998 2.40039C7.64067 2.40039 7.48806 2.4636 7.37554 2.57613C7.26302 2.68865 7.1998 2.84126 7.1998 3.00039V3.60039H6.5998C6.12242 3.60039 5.66458 3.79003 5.32701 4.1276C4.98945 4.46516 4.7998 4.923 4.7998 5.40039V19.8004C4.7998 20.2778 4.98945 20.7356 5.32701 21.0732C5.66458 21.4107 6.12242 21.6004 6.5998 21.6004H13.7998C13.8787 21.6005 13.9568 21.5851 14.0296 21.5551C14.1025 21.525 14.1688 21.4809 14.2246 21.4252L19.0246 16.6252C19.0803 16.5694 19.1244 16.5031 19.1545 16.4302C19.1845 16.3573 19.1999 16.2792 19.1998 16.2004V5.40039C19.1998 4.923 19.0102 4.46516 18.6726 4.1276C18.335 3.79003 17.8772 3.60039 17.3998 3.60039H16.7998V3.00039C16.7998 2.84126 16.7366 2.68865 16.6241 2.57613C16.5115 2.4636 16.3589 2.40039 16.1998 2.40039C16.0407 2.40039 15.8881 2.4636 15.7755 2.57613C15.663 2.68865 15.5998 2.84126 15.5998 3.00039V3.60039H12.5998V3.00039C12.5998 2.84126 12.5366 2.68865 12.4241 2.57613C12.3115 2.4636 12.1589 2.40039 11.9998 2.40039C11.8407 2.40039 11.6881 2.4636 11.5755 2.57613C11.463 2.68865 11.3998 2.84126 11.3998 3.00039V3.60039H8.3998V3.00039C8.3998 2.84126 8.33659 2.68865 8.22407 2.57613C8.11155 2.4636 7.95893 2.40039 7.7998 2.40039ZM17.3998 4.80039C17.5589 4.80039 17.7115 4.86361 17.8241 4.97613C17.9366 5.08865 17.9998 5.24126 17.9998 5.40039V15.6004H14.9998C14.5224 15.6004 14.0646 15.79 13.727 16.1276C13.3894 16.4652 13.1998 16.923 13.1998 17.4004V20.4004H6.5998C6.44067 20.4004 6.28806 20.3372 6.17554 20.2247C6.06302 20.1121 5.9998 19.9595 5.9998 19.8004V5.40039C5.9998 5.24126 6.06302 5.08865 6.17554 4.97613C6.28806 4.86361 6.44067 4.80039 6.5998 4.80039H17.3998ZM17.1514 16.8004L14.3998 19.552V17.4004C14.3998 17.2413 14.463 17.0886 14.5755 16.9761C14.6881 16.8636 14.8407 16.8004 14.9998 16.8004H17.1514Z" fill="#1E1E1E"/>
</svg>
