<svg width="22" height="24" viewBox="0 0 22 24" fill="none" xmlns="http://www.w3.org/2000/svg">
<path d="M9.37109 6C8.16016 6 7.01172 6.22656 5.92578 6.67969C4.83984 7.13281 3.86719 7.78516 3.00781 8.63672C2.15625 9.48828 1.50391 10.457 1.05078 11.543C0.597656 12.6289 0.371094 13.7812 0.371094 15C0.371094 15.8281 0.476562 16.625 0.6875 17.3906C0.898438 18.1562 1.20312 18.8711 1.60156 19.5352C2 20.1992 2.46875 20.8086 3.00781 21.3633C3.54688 21.918 4.15234 22.3867 4.82422 22.7695C5.49609 23.1523 6.21484 23.4531 6.98047 23.6719C7.74609 23.8906 8.54297 24 9.37109 24H19.8711V22.5H9.37109C8.68359 22.5 8.01953 22.4102 7.37891 22.2305C6.73828 22.0508 6.14062 21.8008 5.58594 21.4805C5.03125 21.1602 4.52734 20.7695 4.07422 20.3086C3.62109 19.8477 3.23047 19.3398 2.90234 18.7852C2.57422 18.2305 2.32031 17.6328 2.14062 16.9922C1.96094 16.3516 1.87109 15.6875 1.87109 15C1.87109 14.3125 1.96094 13.6484 2.14062 13.0078C2.32031 12.3672 2.57031 11.7695 2.89062 11.2148C3.21094 10.6602 3.60156 10.1562 4.0625 9.70312C4.52344 9.25 5.03125 8.85938 5.58594 8.53125C6.14062 8.20312 6.73828 7.94922 7.37891 7.76953C8.01953 7.58984 8.68359 7.5 9.37109 7.5H18.9922L14 12.5039L14.8672 13.3711L21.5 6.75L14.8672 0.128906L14 0.996094L18.9922 6H9.37109Z" fill="#1E1E1E"/>
</svg>
