<svg width="15" height="20" viewBox="0 0 15 20" fill="none" xmlns="http://www.w3.org/2000/svg">
<path d="M0 2.90514C0 2.28276 0.247237 1.68588 0.687323 1.24579C1.12741 0.805709 1.72429 0.558472 2.34667 0.558472L11.7333 0.558472C12.3557 0.558472 12.9526 0.805709 13.3927 1.24579C13.8328 1.68588 14.08 2.28276 14.08 2.90514V18.7451C14.0799 18.8513 14.0511 18.9554 13.9966 19.0464C13.942 19.1374 13.8638 19.212 13.7702 19.262C13.6767 19.3121 13.5713 19.3359 13.4653 19.3308C13.3593 19.3258 13.2567 19.292 13.1683 19.2332L7.04 15.9303L0.91168 19.2332C0.823334 19.292 0.720697 19.3258 0.614699 19.3308C0.508702 19.3359 0.403313 19.3121 0.309759 19.262C0.216205 19.212 0.137989 19.1374 0.0834405 19.0464C0.0288922 18.9554 5.48186e-05 18.8513 0 18.7451V2.90514ZM2.34667 1.7318C2.03548 1.7318 1.73704 1.85542 1.51699 2.07547C1.29695 2.29551 1.17333 2.59395 1.17333 2.90514V17.6492L6.71499 14.737C6.81127 14.673 6.92435 14.6388 7.04 14.6388C7.15565 14.6388 7.26873 14.673 7.36501 14.737L12.9067 17.6492V2.90514C12.9067 2.59395 12.783 2.29551 12.563 2.07547C12.343 1.85542 12.0445 1.7318 11.7333 1.7318H2.34667Z" fill="white"/>
</svg>
