<svg width="14" height="18" viewBox="0 0 14 18" fill="none" xmlns="http://www.w3.org/2000/svg">
<path d="M10.4446 0.896179H2.84689C1.25113 0.931905 -0.0349992 2.26567 0.000726692 3.84952V14.9603C0.000726692 15.8058 0.50089 16.5799 1.27495 16.9371C2.01329 17.2468 2.89453 17.1038 3.50187 16.568L6.64575 13.698L9.78963 16.556C10.1707 16.9014 10.659 17.1038 11.1829 17.1038C11.4688 17.1038 11.7546 17.0443 12.0285 16.9252C12.8025 16.568 13.2908 15.7939 13.2908 14.9484V3.86143C13.3265 2.26567 12.0404 0.931905 10.4446 0.896179ZM1.7513 15.8773C1.40595 15.7224 1.17968 15.3652 1.17968 14.9722V3.83762C1.15587 2.88492 1.91802 2.08704 2.8588 2.06323H10.4208C11.3735 2.08704 12.1356 2.88492 12.1118 3.84952V14.9603C12.1118 15.3414 11.8856 15.6986 11.5521 15.8534C11.2187 15.9963 10.8376 15.9368 10.5875 15.6986L6.64575 12.1141L2.7159 15.6986C2.45391 15.9249 2.07283 15.9963 1.7513 15.8653V15.8773Z" fill="#1E1E1E"/>
</svg>
