<svg width="21" height="24" viewBox="0 0 21 24" fill="none" xmlns="http://www.w3.org/2000/svg">
<g clip-path="url(#clip0_136_1085)">
<path d="M5.48876 5.24167C6.70542 5.24167 7.68876 4.25834 7.68876 3.04167C7.68876 1.82501 6.70542 0.841675 5.48876 0.841675C4.27209 0.841675 3.28876 1.82501 3.28876 3.04167C3.28876 4.25834 4.27209 5.24167 5.48876 5.24167ZM5.48876 1.82501C6.15542 1.82501 6.70542 2.37501 6.70542 3.04167C6.70542 3.70834 6.15542 4.25834 5.48876 4.25834C4.82209 4.25834 4.27209 3.70834 4.27209 3.04167C4.27209 2.37501 4.82209 1.82501 5.48876 1.82501Z" fill="#1E1E1E"/>
<path d="M4.03879 14.9083V9.12497C4.03879 8.8583 3.82212 8.64163 3.55545 8.64163C3.28879 8.64163 3.07212 8.8583 3.07212 9.12497V14.1416H2.82212C2.53879 14.1416 2.32212 13.9083 2.32212 13.6416V8.7583C2.32212 7.5583 3.28879 6.59163 4.48879 6.59163H8.12212C8.28879 6.59163 8.42212 6.5083 8.53879 6.39163L9.22212 5.7083C9.83879 5.09163 9.83879 4.07497 9.22212 3.4583C9.03878 3.27497 8.72212 3.27497 8.53879 3.4583C8.35545 3.64163 8.35545 3.9583 8.53879 4.14163C8.77212 4.37497 8.77212 4.77497 8.53879 5.0083L7.93879 5.6083H4.48879C2.75545 5.6083 1.33879 7.02497 1.33879 8.7583V13.6416C1.33879 14.4583 2.00545 15.125 2.82212 15.125H3.05545L0.722119 22.7416C0.522119 23.3416 1.47212 23.6416 1.65545 23.025L3.95545 15.525C4.02212 15.325 4.05545 15.1083 4.05545 14.8916L4.03879 14.9083ZM6.27212 14.0583C6.00545 14.0083 5.73879 14.1583 5.65545 14.4083L2.37212 22.7083C2.13879 23.2916 3.05545 23.6583 3.28879 23.075L5.82212 16.6416L5.98879 22.9083C6.00545 23.5416 6.98879 23.525 6.97212 22.875L6.75545 14.5916C6.75545 14.325 6.55545 14.0916 6.28879 14.0583H6.27212Z" fill="#1E1E1E"/>
<path d="M10.5886 7.15835C11.8886 5.85835 11.8886 3.74168 10.5886 2.44168L8.90526 0.775012C8.72193 0.591679 8.40526 0.591679 8.22193 0.775012C8.03859 0.958346 8.03859 1.27501 8.22193 1.45835L9.90526 3.14168C10.8219 4.05835 10.8219 5.55835 9.90526 6.47501L7.92193 8.40835C7.78859 8.49168 7.70526 8.65835 7.70526 8.80834V22.8917C7.72193 23.525 8.70526 23.525 8.70526 22.8917V9.02501L10.5886 7.17501V7.15835ZM16.5386 13.225C16.6886 13.375 16.8719 13.4583 17.0386 13.4583C17.2219 13.4583 17.3886 13.375 17.5386 13.225C19.0053 11.675 21.7219 8.80835 20.2219 5.94168C19.6053 4.79168 18.3886 4.05835 17.0219 4.04168C15.6719 4.05835 14.4553 4.79168 13.8219 5.94168C12.3219 8.80835 15.0386 11.675 16.5053 13.2083L16.5386 13.225ZM14.7053 6.40835C15.1553 5.57501 16.0553 5.04168 17.0386 5.02501C18.0386 5.04168 18.9219 5.57501 19.3719 6.40835C20.4219 8.40835 18.7553 10.5083 17.0386 12.3417C15.3053 10.5083 13.6553 8.40835 14.7053 6.40835Z" fill="#1E1E1E"/>
<path d="M18.8219 7.72501C18.8219 6.74168 18.0219 5.94168 17.0386 5.94168C16.0553 5.94168 15.2553 6.74168 15.2553 7.72501C15.2553 8.70835 16.0553 9.50835 17.0386 9.50835C18.0219 9.50835 18.8219 8.70835 18.8219 7.72501ZM16.2386 7.72501C16.2386 7.27501 16.6053 6.92501 17.0386 6.92501C17.4886 6.92501 17.8386 7.29168 17.8386 7.72501C17.8386 8.15835 17.4719 8.52501 17.0386 8.52501C16.5886 8.52501 16.2386 8.15835 16.2386 7.72501ZM18.1053 16.3583H14.2219C13.6553 16.3583 13.1886 15.8917 13.1886 15.325V14.6417C13.1886 14.075 13.6553 13.6083 14.2219 13.6083H14.5886C14.8553 13.6083 15.0719 13.3917 15.0719 13.125C15.0719 12.8583 14.8553 12.6417 14.5886 12.6417H14.2219C13.1053 12.6417 12.2053 13.5417 12.2053 14.6583V15.3417C12.2053 16.4583 13.1053 17.3583 14.2219 17.3583H18.1053C18.6719 17.3583 19.1386 17.825 19.1386 18.4083C19.1386 18.975 18.6719 19.425 18.1053 19.4417H9.85528C9.58861 19.4417 9.37195 19.6583 9.37195 19.925C9.37195 20.1917 9.58861 20.4083 9.85528 20.4083H18.1053C19.2219 20.4083 20.1219 19.5083 20.1219 18.3917C20.1219 17.275 19.2219 16.375 18.1053 16.375V16.3583Z" fill="#1E1E1E"/>
</g>
<defs>
<clipPath id="clip0_136_1085">
<rect width="20" height="22.75" fill="white" transform="translate(0.68866 0.625)"/>
</clipPath>
</defs>
</svg>
