<svg width="17" height="18" viewBox="0 0 17 18" fill="none" xmlns="http://www.w3.org/2000/svg">
<g clip-path="url(#clip0_136_1460)">
<path d="M12.89 11.375C12.01 11.375 11.15 11.745 10.55 12.385L10.51 12.425L6.3 9.865V9.81499C6.46 9.27499 6.46 8.69499 6.31 8.15499V8.10499L10.49 5.555L10.53 5.595C11.14 6.245 12 6.62499 12.89 6.62499C14.66 6.62499 16.1 5.19499 16.1 3.435C16.1 1.675 14.66 0.244995 12.89 0.244995C11.12 0.244995 9.68 1.675 9.68 3.435C9.68 3.815 9.74 4.18499 9.87 4.52499L9.89 4.575L5.78 7.075L5.74 7.02499C5.13 6.245 4.2 5.79499 3.21 5.79499C1.44 5.79499 0 7.22499 0 8.98499C0 10.745 1.44 12.175 3.21 12.175C4.21 12.175 5.13 11.725 5.75 10.935L5.79 10.885L9.91 13.395L9.89 13.455C9.76 13.815 9.69 14.185 9.69 14.565C9.69 16.325 11.13 17.755 12.9 17.755C14.67 17.755 16.11 16.325 16.11 14.565C16.11 12.805 14.67 11.375 12.9 11.375H12.89ZM14.96 14.565C14.96 15.695 14.03 16.615 12.89 16.615C11.75 16.615 10.82 15.695 10.82 14.565C10.82 13.435 11.75 12.515 12.89 12.515C14.03 12.515 14.96 13.435 14.96 14.565ZM10.82 3.425C10.82 2.295 11.75 1.375 12.89 1.375C14.03 1.375 14.96 2.295 14.96 3.425C14.96 4.555 14.03 5.47499 12.89 5.47499C11.75 5.47499 10.82 4.555 10.82 3.425ZM5.28 8.98499C5.28 10.115 4.35 11.035 3.21 11.035C2.07 11.035 1.14 10.115 1.14 8.98499C1.14 7.85499 2.07 6.93499 3.21 6.93499C4.35 6.93499 5.28 7.85499 5.28 8.98499Z" fill="black"/>
</g>
<defs>
<clipPath id="clip0_136_1460">
<rect width="16.1" height="17.53" fill="white" transform="translate(0 0.234985)"/>
</clipPath>
</defs>
</svg>
