<svg width="17" height="17" viewBox="0 0 17 17" fill="none" xmlns="http://www.w3.org/2000/svg">
<path d="M5.10723 14.3176L8.79971 12.0903L12.4922 14.3469L11.5251 10.1269L14.778 7.31358L10.4994 6.93261L8.79971 2.94708L7.1 6.9033L2.82142 7.28427L6.07431 10.1269L5.10723 14.3176ZM8.79971 13.47L4.54457 16.0395C4.41953 16.1013 4.30348 16.1263 4.19642 16.1146C4.09014 16.1021 3.9866 16.0653 3.88579 16.0044C3.78419 15.9418 3.70761 15.8535 3.65603 15.7394C3.60445 15.6254 3.59977 15.5007 3.64197 15.3655L4.77432 10.5477L1.0291 7.30068C0.923602 7.21472 0.85405 7.11196 0.820447 6.99239C0.786843 6.87282 0.794267 6.75834 0.842719 6.64893C0.89117 6.53952 0.955642 6.44966 1.03613 6.37932C1.11741 6.31133 1.22681 6.26523 1.36435 6.241L6.30641 5.80963L8.23353 1.24737C8.28667 1.11843 8.36325 1.02543 8.46328 0.968384C8.56331 0.911336 8.67545 0.882813 8.79971 0.882812C8.92396 0.882812 9.03649 0.911336 9.1373 0.968384C9.23811 1.02543 9.31431 1.11843 9.36588 1.24737L11.293 5.80963L16.2339 6.241C16.3722 6.26445 16.482 6.31094 16.5633 6.38049C16.6445 6.44926 16.7094 6.53874 16.7579 6.64893C16.8055 6.75834 16.8126 6.87282 16.779 6.99239C16.7454 7.11196 16.6758 7.21472 16.5703 7.30068L12.8251 10.5477L13.9574 15.3655C14.0012 15.4991 13.9969 15.6234 13.9446 15.7383C13.8922 15.8532 13.8152 15.9415 13.7136 16.0032C13.6136 16.0657 13.5101 16.1028 13.403 16.1146C13.2967 16.1263 13.181 16.1013 13.056 16.0395L8.79971 13.47Z" fill="#1E1E1E"/>
</svg>
