<svg width="24" height="24" viewBox="0 0 24 24" fill="none" xmlns="http://www.w3.org/2000/svg">
<path d="M2.5 2.75C2.5 2.55109 2.42098 2.36032 2.28033 2.21967C2.13968 2.07902 1.94891 2 1.75 2C1.55109 2 1.36032 2.07902 1.21967 2.21967C1.07902 2.36032 1 2.55109 1 2.75V21.25C1 21.664 1.336 22 1.75 22H20C20.1989 22 20.3897 21.921 20.5303 21.7803C20.671 21.6397 20.75 21.4489 20.75 21.25C20.75 21.0511 20.671 20.8603 20.5303 20.7197C20.3897 20.579 20.1989 20.5 20 20.5H2.5V2.75Z" fill="#1E1E1E" fill-opacity="0.6"/>
<path d="M22.2802 7.77985C22.4126 7.63767 22.4848 7.44963 22.4813 7.25532C22.4779 7.06102 22.3992 6.87564 22.2618 6.73822C22.1244 6.60081 21.939 6.5221 21.7447 6.51867C21.5504 6.51524 21.3623 6.58737 21.2202 6.71985L15.5002 12.4398L11.7802 8.71985C11.6395 8.5794 11.4489 8.50051 11.2502 8.50051C11.0514 8.50051 10.8608 8.5794 10.7202 8.71985L4.72015 14.7198C4.64647 14.7885 4.58736 14.8713 4.54637 14.9633C4.50538 15.0553 4.48334 15.1546 4.48156 15.2553C4.47979 15.356 4.49831 15.4561 4.53603 15.5494C4.57375 15.6428 4.6299 15.7277 4.70112 15.7989C4.77233 15.8701 4.85717 15.9262 4.95056 15.964C5.04394 16.0017 5.14397 16.0202 5.24468 16.0184C5.34538 16.0167 5.44469 15.9946 5.53669 15.9536C5.62869 15.9126 5.71149 15.8535 5.78015 15.7798L11.2502 10.3098L14.9702 14.0298C15.1108 14.1703 15.3014 14.2492 15.5002 14.2492C15.6989 14.2492 15.8895 14.1703 16.0302 14.0298L22.2802 7.77985Z" fill="#1E1E1E" fill-opacity="0.6"/>
</svg>
