<svg width="30" height="31" viewBox="0 0 30 31" fill="none" xmlns="http://www.w3.org/2000/svg">
<rect y="0.5" width="30" height="30" rx="8" fill="#D9D9D9" fill-opacity="0.3"/>
<path d="M22 22.5C22 23.2956 21.6839 24.0587 21.1213 24.6213C20.5587 25.1839 19.7956 25.5 19 25.5H12C11.2044 25.5 10.4413 25.1839 9.87868 24.6213C9.31607 24.0587 9 23.2956 9 22.5V10.5H8V7.5H12.5L13.5 6.5H17.5L18.5 7.5H23V10.5H22V22.5ZM10 10.5V22.5C10 23.0304 10.2107 23.5391 10.5858 23.9142C10.9609 24.2893 11.4696 24.5 12 24.5H19C19.5304 24.5 20.0391 24.2893 20.4142 23.9142C20.7893 23.5391 21 23.0304 21 22.5V10.5H10ZM22 9.5V8.5H18L17 7.5H14L13 8.5H9V9.5H22ZM12 12.5H13V22.5H12V12.5ZM18 12.5H19V22.5H18V12.5Z" fill="#F71313"/>
</svg>
