<svg width="14" height="14" viewBox="0 0 14 14" fill="none" xmlns="http://www.w3.org/2000/svg">
<path d="M1.616 14.0001C1.15533 14.0001 0.771 13.8461 0.463 13.5381C0.155 13.2301 0.000666667 12.8454 0 12.3841V10.4611C0 10.3191 0.0476668 10.2004 0.143 10.1051C0.238333 10.0098 0.357333 9.96177 0.5 9.9611C0.642667 9.96043 0.761667 10.0084 0.857 10.1051C0.952333 10.2018 1 10.3204 1 10.4611V12.3841C1 12.5381 1.064 12.6794 1.192 12.8081C1.32 12.9368 1.461 13.0008 1.615 13.0001H12.385C12.5383 13.0001 12.6793 12.9361 12.808 12.8081C12.9367 12.6801 13.0007 12.5388 13 12.3841V10.4611C13 10.3191 13.0477 10.2004 13.143 10.1051C13.2383 10.0098 13.3573 9.96177 13.5 9.9611C13.6427 9.96043 13.7617 10.0084 13.857 10.1051C13.9523 10.2018 14 10.3204 14 10.4611V12.3841C14 12.8448 13.846 13.2291 13.538 13.5371C13.23 13.8451 12.8453 13.9994 12.384 14.0001H1.616ZM6.5 1.9271L4.529 3.8981C4.43167 3.99543 4.316 4.04643 4.182 4.0511C4.048 4.05577 3.926 4.00277 3.816 3.8921C3.70933 3.7821 3.655 3.66443 3.653 3.5391C3.651 3.4131 3.70533 3.2951 3.816 3.1851L6.434 0.565102C6.522 0.478435 6.61133 0.417435 6.702 0.382102C6.79333 0.346768 6.89267 0.329102 7 0.329102C7.10733 0.329102 7.20667 0.346768 7.298 0.382102C7.38933 0.417435 7.47867 0.478768 7.566 0.566102L10.184 3.1851C10.282 3.28244 10.3333 3.3971 10.338 3.5291C10.342 3.6611 10.291 3.7821 10.185 3.8921C10.0743 4.00277 9.95533 4.0591 9.828 4.0611C9.70067 4.0631 9.58167 4.00877 9.471 3.8981L7.5 1.9271V10.0771C7.5 10.2198 7.45233 10.3388 7.357 10.4341C7.26167 10.5294 7.14267 10.5771 7 10.5771C6.85733 10.5771 6.73833 10.5294 6.643 10.4341C6.54767 10.3388 6.5 10.2198 6.5 10.0771V1.9271Z" fill="#1E1E1E" fill-opacity="0.6"/>
</svg>
